<?xml version="1.0" encoding="utf-8" ?>
<svg baseProfile="full" height="200" version="1.1" width="1000" xmlns="http://www.w3.org/2000/svg" xmlns:ev="http://www.w3.org/2001/xml-events" xmlns:xlink="http://www.w3.org/1999/xlink"><defs /><polygon fill="#FF0000" opacity="0.7" points="50.0,50.0 150.0,50.0 150.0,150.0 50.0,150.0" stroke="#000000" /><polygon fill="#FF0000" opacity="0.7" points="84.64466094067262,38.76275643042055 181.23724356957945,64.64466094067262 155.35533905932738,161.23724356957945 58.76275643042055,135.35533905932738" stroke="#000000" /><polygon fill="#FF0000" opacity="0.7" points="121.69872981077806,31.69872981077806 208.30127018922195,81.69872981077806 158.30127018922195,168.30127018922195 71.69872981077806,118.30127018922194" stroke="#000000" /><polygon fill="#FF0000" opacity="0.7" points="160.0,29.289321881345245 230.71067811865476,100.0 160.0,170.71067811865476 89.28932188134524,100.0" stroke="#000000" /><polygon fill="#FF0000" opacity="0.7" points="198.30127018922192,31.69872981077806 248.30127018922195,118.30127018922192 161.69872981077808,168.30127018922195 111.69872981077806,81.69872981077808" stroke="#000000" /><polygon fill="#FF0000" opacity="0.7" points="235.35533905932738,38.76275643042054 261.23724356957945,135.35533905932738 164.64466094067262,161.23724356957945 138.76275643042055,64.64466094067264" stroke="#000000" /><polygon fill="#FF0000" opacity="0.7" points="270.0,50.0 270.0,150.0 170.0,150.0 170.0,50.0" stroke="#000000" /><polygon fill="#FF0000" opacity="0.7" points="301.23724356957945,64.64466094067262 275.3553390593274,161.23724356957945 178.76275643042055,135.35533905932738 204.64466094067262,38.76275643042055" stroke="#000000" /><polygon fill="#FF0000" opacity="0.7" points="328.3012701892219,81.69872981077805 278.30127018922195,168.30127018922192 191.69872981077808,118.30127018922195 241.69872981077805,31.698729810778076" stroke="#000000" /><polygon fill="#FF0000" opacity="0.7" points="350.71067811865476,100.0 280.0,170.71067811865476 209.28932188134524,100.0 280.0,29.289321881345245" stroke="#000000" /><polygon fill="#FF0000" opacity="0.7" points="368.30127018922195,118.30127018922191 281.6987298107781,168.30127018922195 231.69872981077805,81.69872981077809 318.3012701892219,31.69872981077806" stroke="#000000" /><polygon fill="#FF0000" opacity="0.7" points="381.23724356957945,135.35533905932738 284.6446609406726,161.23724356957945 258.76275643042055,64.64466094067264 355.3553390593274,38.76275643042054" stroke="#000000" /><polygon fill="#FF0000" opacity="0.7" points="390.0,150.0 290.0,150.0 290.0,50.00000000000001 390.0,49.99999999999999" stroke="#000000" /><polygon fill="#FF0000" opacity="0.7" points="395.35533905932743,161.23724356957945 298.76275643042055,135.3553390593274 324.64466094067257,38.762756430420566 421.23724356957945,64.6446609406726" stroke="#000000" /><polygon fill="#FF0000" opacity="0.7" points="398.30127018922195,168.30127018922192 311.6987298107781,118.30127018922195 361.69872981077805,31.698729810778076 448.3012701892219,81.69872981077805" stroke="#000000" /><polygon fill="#FF0000" opacity="0.7" points="400.00000000000006,170.71067811865476 329.28932188134524,100.00000000000003 399.99999999999994,29.289321881345245 470.71067811865476,99.99999999999997" stroke="#000000" /><polygon fill="#FF0000" opacity="0.7" points="401.6987298107781,168.30127018922195 351.69872981077805,81.6987298107781 438.3012701892219,31.69872981077806 488.30127018922195,118.3012701892219" stroke="#000000" /><polygon fill="#FF0000" opacity="0.7" points="404.6446609406727,161.23724356957948 378.7627564304205,64.64466094067268 475.3553390593273,38.76275643042052 501.2372435695795,135.35533905932732" stroke="#000000" /><polygon fill="#FF0000" opacity="0.7" points="410.0,150.0 410.0,50.00000000000001 510.0,49.99999999999999 510.0,150.0" stroke="#000000" /><polygon fill="#FF0000" opacity="0.7" points="418.76275643042055,135.3553390593274 444.64466094067257,38.762756430420566 541.2372435695794,64.6446609406726 515.3553390593274,161.23724356957945" stroke="#000000" /></svg>