<?xml version="1.0" encoding="utf-8" ?>
<svg baseProfile="full" height="200" version="1.1" width="1000" xmlns="http://www.w3.org/2000/svg" xmlns:ev="http://www.w3.org/2001/xml-events" xmlns:xlink="http://www.w3.org/1999/xlink"><defs /><polygon fill="#FF0000" opacity="0.7" points="0.0,0.0 100.0,0.0 100.0,100.0 0.0,100.0" stroke="#000000" /><polygon fill="#FF0000" opacity="0.7" points="48.18019484660536,-5.113519212621512 135.1135192126215,18.180194846605357 111.81980515339464,105.11351921262151 24.88648078737849,81.81980515339464" stroke="#000000" /><polygon fill="#FF0000" opacity="0.7" points="95.17597114673023,-5.324028853269766 165.32402885326977,35.175971146730234 124.82402885326977,105.32402885326977 54.675971146730234,64.82402885326977" stroke="#000000" /><polygon fill="#FF0000" opacity="0.7" points="140.0,-1.5480843484993159 191.54808434849932,50.0 140.0,101.54808434849932 88.45191565150068,50.0" stroke="#000000" /><polygon fill="#FF0000" opacity="0.7" points="182.0074633711485,5.18753662885149 214.8124633711485,62.0074633711485 157.9925366288515,94.81246337114851 125.18753662885149,37.9925366288515" stroke="#000000" /><polygon fill="#FF0000" opacity="0.7" points="220.87697416114221,13.840020044599022 236.15997995540098,70.87697416114221 179.12302583885779,86.15997995540098 163.84002004459902,29.123025838857785" stroke="#000000" /><polygon fill="#FF0000" opacity="0.7" points="256.57205,23.427949999999996 256.57205,76.57205 203.42795,76.57205 203.42795,23.427949999999996" stroke="#000000" /><polygon fill="#FF0000" opacity="0.7" points="289.2895837638748,33.08965092947479 276.9103490705252,79.28958376387479 230.7104162361252,66.9103490705252 243.0896509294748,20.710416236125212" stroke="#000000" /><polygon fill="#FF0000" opacity="0.7" points="319.40145721781056,42.12190328218945 297.87809671781054,79.40145721781055 260.59854278218944,57.87809671781055 282.12190328218946,20.598542782189458" stroke="#000000" /><polygon fill="#FF0000" opacity="0.7" points="347.3947654942508,50.0 320.0,77.39476549425083 292.6052345057492,50.0 320.0,22.60523450574917" stroke="#000000" /><polygon fill="#FF0000" opacity="0.7" points="373.81518034642653,56.38125834142653 343.61874165857347,73.81518034642654 326.18481965357347,43.61874165857347 356.38125834142653,26.184819653573456" stroke="#000000" /><polygon fill="#FF0000" opacity="0.7" points="399.21689590747826,61.094880025171584 368.90511997482844,69.21689590747826 360.78310409252174,38.905119974828416 391.09488002517156,30.783104092521747" stroke="#000000" /><polygon fill="#FF0000" opacity="0.7" points="424.12147682405003,64.12147682405 395.87852317595,64.12147682405 395.87852317594997,35.878523175949994 424.12147682405,35.878523175949994" stroke="#000000" /><polygon fill="#FF0000" opacity="0.7" points="448.986852820389,65.56568568505739 424.43431431494264,58.98685282038899 431.013147179611,34.43431431494262 455.56568568505736,41.01314717961101" stroke="#000000" /><polygon fill="#FF0000" opacity="0.7" points="474.18674359780994,65.62513982529046 454.37486017470957,54.18674359780996 465.81325640219006,34.374860174709546 485.62513982529043,45.81325640219004" stroke="#000000" /><polygon fill="#FF0000" opacity="0.7" points="500.0,64.55870156903016 485.4412984309698,50.00000000000001 500.0,35.44129843096984 514.5587015690302,49.99999999999999" stroke="#000000" /><polygon fill="#FF0000" opacity="0.7" points="526.6087376857739,62.65636325848527 517.3436367415147,46.608737685773946 533.3912623142261,37.34363674151473 542.6563632584853,53.391262314226054" stroke="#000000" /><polygon fill="#FF0000" opacity="0.7" points="554.1037258645428,60.21264637796616 549.7873536220338,44.103725864542795 565.8962741354572,39.78735362203384 570.2126463779662,55.896274135457205" stroke="#000000" /><polygon fill="#FF0000" opacity="0.7" points="582.4952682351501,57.504731764849964 582.4952682351501,42.49526823515004 597.5047317648499,42.495268235150036 597.5047317648499,57.50473176484996" stroke="#000000" /><polygon fill="#FF0000" opacity="0.7" points="611.7277564338474,54.77598204972035 615.2240179502796,41.72775643384742 628.2722435661526,45.22401795027965 624.7759820497204,58.27224356615258" stroke="#000000" /></svg>